M48
;GenerationSoftware,Autodesk,EAGLE,9.6.2*%
;CreationDate,2021-02-26T15:54:10Z*%
FMAT,2
ICI,OFF
METRIC,TZ,000.000
T3C0.305
T2C1.016
T1C3.048
%
G90
M71
T1
X152400Y48768
X2540Y22860
X2540Y2540
X22860Y2540
X22860Y22860
X28448Y22860
X28448Y2540
X48768Y2540
X48768Y22860
X54356Y22860
X54356Y2540
X74676Y2540
X74676Y22860
X80264Y22860
X80264Y2540
X100584Y2540
X100584Y22860
X106172Y22860
X106172Y2540
X126492Y2540
X126492Y22860
X132080Y22860
X132080Y2540
X152400Y2540
X152400Y22860
X2540Y48768
X2540Y28448
X22860Y28448
X22860Y48768
X28448Y48768
X28448Y28448
X48768Y28448
X48768Y48768
X54356Y48768
X54356Y28448
X74676Y28448
X74676Y48768
X80264Y48768
X80264Y28448
X100584Y28448
X100584Y48768
X106172Y48768
X106172Y28448
X126492Y28448
X126492Y48768
X132080Y48768
X132080Y28448
X152400Y28448
X152400Y100584
X2540Y74676
X2540Y54356
X22860Y54356
X22860Y74676
X28448Y74676
X28448Y54356
X48768Y54356
X48768Y74676
X54356Y74676
X54356Y54356
X74676Y54356
X74676Y74676
X80264Y74676
X80264Y54356
X100584Y54356
X100584Y74676
X106172Y74676
X106172Y54356
X126492Y54356
X126492Y74676
X132080Y74676
X132080Y54356
X152400Y54356
X152400Y74676
X2540Y100584
X2540Y80264
X22860Y80264
X22860Y100584
X28448Y100584
X28448Y80264
X48768Y80264
X48768Y100584
X54356Y100584
X54356Y80264
X74676Y80264
X74676Y100584
X80264Y100584
X80264Y80264
X100584Y80264
X100584Y100584
X106172Y100584
X106172Y80264
X126492Y80264
X126492Y100584
X132080Y100584
X132080Y80264
X152400Y80264
T2
X84074Y27178
X19050Y1270
X16510Y1270
X13970Y1270
X11430Y1270
X8890Y1270
X6350Y1270
X6350Y24130
X8890Y24130
X11430Y24130
X13970Y24130
X16510Y24130
X19050Y24130
X44958Y1270
X42418Y1270
X39878Y1270
X37338Y1270
X34798Y1270
X32258Y1270
X32258Y24130
X34798Y24130
X37338Y24130
X39878Y24130
X42418Y24130
X44958Y24130
X70866Y1270
X68326Y1270
X65786Y1270
X63246Y1270
X60706Y1270
X58166Y1270
X58166Y24130
X60706Y24130
X63246Y24130
X65786Y24130
X68326Y24130
X70866Y24130
X96774Y1270
X94234Y1270
X91694Y1270
X89154Y1270
X86614Y1270
X84074Y1270
X84074Y24130
X86614Y24130
X89154Y24130
X91694Y24130
X94234Y24130
X96774Y24130
X122682Y1270
X120142Y1270
X117602Y1270
X115062Y1270
X112522Y1270
X109982Y1270
X109982Y24130
X112522Y24130
X115062Y24130
X117602Y24130
X120142Y24130
X122682Y24130
X148590Y1270
X146050Y1270
X143510Y1270
X140970Y1270
X138430Y1270
X135890Y1270
X135890Y24130
X138430Y24130
X140970Y24130
X143510Y24130
X146050Y24130
X148590Y24130
X19050Y27178
X16510Y27178
X13970Y27178
X11430Y27178
X8890Y27178
X6350Y27178
X6350Y50038
X8890Y50038
X11430Y50038
X13970Y50038
X16510Y50038
X19050Y50038
X44958Y27178
X42418Y27178
X39878Y27178
X37338Y27178
X34798Y27178
X32258Y27178
X32258Y50038
X34798Y50038
X37338Y50038
X39878Y50038
X42418Y50038
X44958Y50038
X70866Y27178
X68326Y27178
X65786Y27178
X63246Y27178
X60706Y27178
X58166Y27178
X58166Y50038
X60706Y50038
X63246Y50038
X65786Y50038
X68326Y50038
X70866Y50038
X96774Y27178
X94234Y27178
X91694Y27178
X89154Y27178
X86614Y27178
X84074Y50038
X86614Y50038
X89154Y50038
X91694Y50038
X94234Y50038
X96774Y50038
X122682Y27178
X120142Y27178
X117602Y27178
X115062Y27178
X112522Y27178
X109982Y27178
X109982Y50038
X112522Y50038
X115062Y50038
X117602Y50038
X120142Y50038
X122682Y50038
X148590Y27178
X146050Y27178
X143510Y27178
X140970Y27178
X138430Y27178
X135890Y27178
X135890Y50038
X138430Y50038
X140970Y50038
X143510Y50038
X146050Y50038
X148590Y50038
X19050Y53086
X16510Y53086
X13970Y53086
X11430Y53086
X8890Y53086
X6350Y53086
X6350Y75946
X8890Y75946
X11430Y75946
X13970Y75946
X16510Y75946
X19050Y75946
X44958Y53086
X42418Y53086
X39878Y53086
X37338Y53086
X34798Y53086
X32258Y53086
X32258Y75946
X34798Y75946
X37338Y75946
X39878Y75946
X42418Y75946
X44958Y75946
X70866Y53086
X68326Y53086
X65786Y53086
X63246Y53086
X60706Y53086
X58166Y53086
X58166Y75946
X60706Y75946
X63246Y75946
X65786Y75946
X68326Y75946
X70866Y75946
X96774Y53086
X94234Y53086
X91694Y53086
X89154Y53086
X86614Y53086
X84074Y53086
X84074Y75946
X86614Y75946
X89154Y75946
X91694Y75946
X94234Y75946
X96774Y75946
X122682Y53086
X120142Y53086
X117602Y53086
X115062Y53086
X112522Y53086
X109982Y53086
X109982Y75946
X112522Y75946
X115062Y75946
X117602Y75946
X120142Y75946
X122682Y75946
X148590Y53086
X146050Y53086
X143510Y53086
X140970Y53086
X138430Y53086
X135890Y53086
X135890Y75946
X138430Y75946
X140970Y75946
X143510Y75946
X146050Y75946
X148590Y75946
X19050Y78994
X16510Y78994
X13970Y78994
X11430Y78994
X8890Y78994
X6350Y78994
X6350Y101854
X8890Y101854
X11430Y101854
X13970Y101854
X16510Y101854
X19050Y101854
X44958Y78994
X42418Y78994
X39878Y78994
X37338Y78994
X34798Y78994
X32258Y78994
X32258Y101854
X34798Y101854
X37338Y101854
X39878Y101854
X42418Y101854
X44958Y101854
X70866Y78994
X68326Y78994
X65786Y78994
X63246Y78994
X60706Y78994
X58166Y78994
X58166Y101854
X60706Y101854
X63246Y101854
X65786Y101854
X68326Y101854
X70866Y101854
X96774Y78994
X94234Y78994
X91694Y78994
X89154Y78994
X86614Y78994
X84074Y78994
X84074Y101854
X86614Y101854
X89154Y101854
X91694Y101854
X94234Y101854
X96774Y101854
X122682Y78994
X120142Y78994
X117602Y78994
X115062Y78994
X112522Y78994
X109982Y78994
X109982Y101854
X112522Y101854
X115062Y101854
X117602Y101854
X120142Y101854
X122682Y101854
X148590Y78994
X146050Y78994
X143510Y78994
X140970Y78994
X138430Y78994
X135890Y78994
X135890Y101854
X138430Y101854
X140970Y101854
X143510Y101854
X146050Y101854
X148590Y101854
T3
X82804Y40996
X92405Y44094
X88849Y44806
X99492Y37236
X84557Y37846
X90018Y41021
X90399Y29566
X94564Y32334
X94590Y34722
X96774Y37922
X96774Y39980
X92583Y35902
X92126Y32436
X90170Y30480
X87452Y34265
X94234Y31242
X87376Y35814
X93574Y37948
X93523Y34341
X94704Y46431
X91173Y46672
X89154Y47549
X86639Y38735
X86436Y44653
X90551Y32639
X99271Y38133
X90924Y40640
X99289Y42977
X87351Y38125
X87376Y44501
X89687Y33020
X91491Y33096
X101752Y45771
X95326Y40513
X87884Y37338
X88036Y45127
X114503Y41707
X119151Y46482
X122174Y36576
X112217Y30810
X111201Y44628
X112293Y37846
X108712Y40996
X118313Y44094
X114757Y44806
X125400Y37236
X110465Y37846
X115926Y41021
X116307Y29566
X120472Y32334
X120498Y34722
X122682Y37922
X122682Y39980
X118491Y35902
X118034Y32436
X116078Y30480
X113360Y34265
X120142Y31242
X113284Y35814
X119482Y37948
X119431Y34341
X120612Y46431
X117081Y46672
X115062Y47549
X112547Y38735
X112344Y44653
X116459Y32639
X125179Y38133
X116832Y40640
X125197Y42977
X113259Y38125
X113284Y44501
X115595Y33020
X117399Y33096
X127660Y45771
X121234Y40513
X113792Y37338
X113944Y45127
X140411Y41707
X145059Y46482
X148082Y36576
X138125Y30810
X137109Y44628
X138201Y37846
X134620Y40996
X144221Y44094
X140665Y44806
X151308Y37236
X136373Y37846
X141834Y41021
X142215Y29566
X146380Y32334
X146406Y34722
X148590Y37922
X148590Y39980
X144399Y35902
X143942Y32436
X141986Y30480
X139268Y34265
X146050Y31242
X139192Y35814
X145390Y37948
X145339Y34341
X146520Y46431
X142989Y46672
X140970Y47549
X138455Y38735
X138252Y44653
X142367Y32639
X151087Y38133
X142740Y40640
X151105Y42977
X139167Y38125
X139192Y44501
X141503Y33020
X143307Y33096
X153568Y45771
X147142Y40513
X139700Y37338
X139852Y45127
X10871Y67615
X15519Y72390
X18542Y62484
X8585Y56718
X7569Y70536
X8661Y63754
X5080Y66904
X14681Y70002
X11125Y70714
X21768Y63144
X6833Y63754
X12294Y66929
X12675Y55474
X16840Y58242
X16866Y60630
X19050Y63830
X19050Y65888
X14859Y61810
X14402Y58344
X12446Y56388
X9728Y60173
X16510Y57150
X9652Y61722
X15850Y63856
X15799Y60249
X16980Y72339
X13449Y72581
X11430Y73457
X8915Y64643
X8712Y70561
X12827Y58547
X21547Y64041
X13200Y66548
X21565Y68885
X9627Y64033
X9652Y70409
X11963Y58928
X13767Y59004
X24028Y71679
X17602Y66421
X10160Y63246
X10312Y71035
X36779Y67615
X41427Y72390
X44450Y62484
X34493Y56718
X33477Y70536
X34569Y63754
X30988Y66904
X40589Y70002
X37033Y70714
X47676Y63144
X32741Y63754
X38202Y66929
X38583Y55474
X42748Y58242
X42774Y60630
X44958Y63830
X44958Y65888
X40767Y61810
X40310Y58344
X38354Y56388
X35636Y60173
X42418Y57150
X35560Y61722
X41758Y63856
X41707Y60249
X42888Y72339
X39357Y72581
X37338Y73457
X34823Y64643
X34620Y70561
X38735Y58547
X47455Y64041
X39108Y66548
X47473Y68885
X35535Y64033
X35560Y70409
X37871Y58928
X39675Y59004
X49936Y71679
X43510Y66421
X36068Y63246
X36220Y71035
X62687Y67615
X67335Y72390
X70358Y62484
X60401Y56718
X59385Y70536
X60477Y63754
X56896Y66904
X66497Y70002
X62941Y70714
X73584Y63144
X58649Y63754
X64110Y66929
X64491Y55474
X68656Y58242
X68682Y60630
X70866Y63830
X70866Y65888
X66675Y61810
X66218Y58344
X64262Y56388
X61544Y60173
X68326Y57150
X61468Y61722
X67666Y63856
X67615Y60249
X68796Y72339
X65265Y72581
X63246Y73457
X60731Y64643
X60528Y70561
X64643Y58547
X73363Y64041
X65016Y66548
X73381Y68885
X61443Y64033
X61468Y70409
X63779Y58928
X65583Y59004
X75844Y71679
X69418Y66421
X61976Y63246
X62128Y71035
X88595Y67615
X93243Y72390
X96266Y62484
X86309Y56718
X85293Y70536
X86385Y63754
X82804Y66904
X92405Y70002
X88849Y70714
X99492Y63144
X84557Y63754
X90018Y66929
X90399Y55474
X94564Y58242
X94590Y60630
X96774Y63830
X96774Y65888
X92583Y61810
X92126Y58344
X90170Y56388
X87452Y60173
X94234Y57150
X87376Y61722
X93574Y63856
X93523Y60249
X94704Y72339
X91173Y72581
X89154Y73457
X86639Y64643
X86436Y70561
X90551Y58547
X99271Y64041
X90924Y66548
X99289Y68885
X87351Y64033
X87376Y70409
X89687Y58928
X91491Y59004
X101752Y71679
X95326Y66421
X87884Y63246
X88036Y71035
X114503Y67615
X119151Y72390
X122174Y62484
X112217Y56718
X111201Y70536
X112293Y63754
X108712Y66904
X118313Y70002
X114757Y70714
X125400Y63144
X110465Y63754
X115926Y66929
X116307Y55474
X120472Y58242
X120498Y60630
X122682Y63830
X122682Y65888
X118491Y61810
X118034Y58344
X116078Y56388
X113360Y60173
X120142Y57150
X113284Y61722
X119482Y63856
X108712Y15088
X120612Y72339
X117081Y72581
X115062Y73457
X112547Y64643
X112344Y70561
X116459Y58547
X125179Y64041
X116832Y66548
X125197Y68885
X113259Y64033
X113284Y70409
X115595Y58928
X117399Y59004
X127660Y71679
X121234Y66421
X113792Y63246
X113944Y71035
X140411Y67615
X145059Y72390
X148082Y62484
X138125Y56718
X137109Y70536
X138201Y63754
X134620Y66904
X144221Y70002
X140665Y70714
X151308Y63144
X136373Y63754
X141834Y66929
X142215Y55474
X146380Y58242
X146406Y60630
X148590Y63830
X148590Y65888
X144399Y61810
X143942Y58344
X141986Y56388
X139268Y60173
X146050Y57150
X139192Y61722
X145390Y63856
X145339Y60249
X146520Y72339
X142989Y72581
X140970Y73457
X138455Y64643
X138252Y70561
X142367Y58547
X151087Y64041
X142740Y66548
X151105Y68885
X139167Y64033
X139192Y70409
X141503Y58928
X143307Y59004
X153568Y71679
X147142Y66421
X139700Y63246
X139852Y71035
X10871Y93523
X15519Y98298
X18542Y88392
X8585Y82626
X7569Y96444
X8661Y89662
X5080Y92812
X14681Y95910
X11125Y96622
X21768Y89052
X6833Y89662
X12294Y92837
X12675Y81382
X16840Y84150
X16866Y86538
X19050Y89738
X19050Y91796
X14859Y87718
X14402Y84252
X12446Y82296
X9728Y86081
X16510Y83058
X9652Y87630
X15850Y89764
X15799Y86157
X16980Y98247
X13449Y98488
X11430Y99365
X8915Y90551
X8712Y96469
X12827Y84455
X21547Y89949
X13200Y92456
X21565Y94793
X9627Y89941
X9652Y96317
X11963Y84836
X13767Y84912
X24028Y97587
X17602Y92329
X10160Y89154
X10312Y96943
X36779Y93523
X41427Y98298
X44450Y88392
X34493Y82626
X33477Y96444
X34569Y89662
X30988Y92812
X40589Y95910
X37033Y96622
X47676Y89052
X32741Y89662
X38202Y92837
X38583Y81382
X42748Y84150
X42774Y86538
X44958Y89738
X44958Y91796
X40767Y87718
X40310Y84252
X38354Y82296
X35636Y86081
X42418Y83058
X35560Y87630
X41758Y89764
X41707Y86157
X42888Y98247
X39357Y98488
X37338Y99365
X34823Y90551
X34620Y96469
X38735Y84455
X47455Y89949
X39108Y92456
X47473Y94793
X35535Y89941
X35560Y96317
X37871Y84836
X39675Y84912
X49936Y97587
X43510Y92329
X36068Y89154
X36220Y96943
X62687Y93523
X67335Y98298
X70358Y88392
X60401Y82626
X59385Y96444
X60477Y89662
X56896Y92812
X66497Y95910
X62941Y96622
X73584Y89052
X58649Y89662
X64110Y92837
X64491Y81382
X68656Y84150
X68682Y86538
X70866Y89738
X70866Y91796
X66675Y87718
X66218Y84252
X64262Y82296
X61544Y86081
X68326Y83058
X61468Y87630
X67666Y89764
X67615Y86157
X68796Y98247
X65265Y98488
X63246Y99365
X60731Y90551
X60528Y96469
X64643Y84455
X73363Y89949
X65016Y92456
X73381Y94793
X61443Y89941
X61468Y96317
X63779Y84836
X65583Y84912
X75844Y97587
X69418Y92329
X61976Y89154
X62128Y96943
X88595Y93523
X93243Y98298
X96266Y88392
X86309Y82626
X85293Y96444
X86385Y89662
X82804Y92812
X92405Y95910
X88849Y96622
X99492Y89052
X84557Y89662
X90018Y92837
X90399Y81382
X94564Y84150
X94590Y86538
X96774Y89738
X96774Y91796
X92583Y87718
X92126Y84252
X90170Y82296
X87452Y86081
X94234Y83058
X87376Y87630
X93574Y89764
X93523Y86157
X94704Y98247
X91173Y98488
X89154Y99365
X86639Y90551
X86436Y96469
X90551Y84455
X99271Y89949
X90924Y92456
X99289Y94793
X87351Y89941
X87376Y96317
X89687Y84836
X91491Y84912
X101752Y97587
X95326Y92329
X87884Y89154
X88036Y96943
X114503Y93523
X119151Y98298
X122174Y88392
X112217Y82626
X111201Y96444
X112293Y89662
X108712Y92812
X118313Y95910
X114757Y96622
X125400Y89052
X110465Y89662
X115926Y92837
X116307Y81382
X120472Y84150
X120498Y86538
X122682Y89738
X122682Y91796
X118491Y87718
X118034Y84252
X116078Y82296
X113360Y86081
X120142Y83058
X113284Y87630
X119482Y89764
X119431Y86157
X120612Y98247
X117081Y98488
X115062Y99365
X112547Y90551
X112344Y96469
X116459Y84455
X125179Y89949
X116832Y92456
X125197Y94793
X113259Y89941
X113284Y96317
X115595Y84836
X117399Y84912
X127660Y97587
X121234Y92329
X113792Y89154
X113944Y96943
X140411Y93523
X145059Y98298
X148082Y88392
X138125Y82626
X137109Y96444
X138201Y89662
X134620Y92812
X144221Y95910
X140665Y96622
X151308Y89052
X136373Y89662
X141834Y92837
X142215Y81382
X146380Y84150
X146406Y86538
X148590Y89738
X148590Y91796
X144399Y87718
X143942Y84252
X141986Y82296
X139268Y86081
X146050Y83058
X139192Y87630
X145390Y89764
X145339Y86157
X146520Y98247
X142989Y98488
X140970Y99365
X138455Y90551
X138252Y96469
X142367Y84455
X151087Y89949
X142740Y92456
X151105Y94793
X139167Y89941
X139192Y96317
X141503Y84836
X143307Y84912
X153568Y97587
X147142Y92329
X139700Y89154
X139852Y96943
X10871Y15799
X15519Y20574
X18542Y10668
X8585Y4902
X7569Y18720
X8661Y11938
X5080Y15088
X14681Y18186
X11125Y18898
X21768Y11328
X6833Y11938
X12294Y15113
X12675Y3658
X16840Y6426
X16866Y8814
X19050Y12014
X19050Y14072
X14859Y9994
X14402Y6528
X12446Y4572
X9728Y8357
X16510Y5334
X9652Y9906
X15850Y12040
X15799Y8433
X16980Y20523
X13449Y20765
X11430Y21641
X8915Y12827
X8712Y18745
X12827Y6731
X21547Y12225
X13200Y14732
X21565Y17069
X9627Y12217
X9652Y18593
X11963Y7112
X13767Y7188
X24028Y19863
X17602Y14605
X10160Y11430
X10312Y19219
X36779Y15799
X41427Y20574
X44450Y10668
X34493Y4902
X33477Y18720
X34569Y11938
X30988Y15088
X40589Y18186
X37033Y18898
X47676Y11328
X32741Y11938
X38202Y15113
X38583Y3658
X42748Y6426
X42774Y8814
X44958Y12014
X44958Y14072
X40767Y9994
X40310Y6528
X38354Y4572
X35636Y8357
X42418Y5334
X35560Y9906
X41758Y12040
X41707Y8433
X42888Y20523
X39357Y20765
X37338Y21641
X34823Y12827
X34620Y18745
X38735Y6731
X47455Y12225
X39108Y14732
X47473Y17069
X35535Y12217
X35560Y18593
X37871Y7112
X39675Y7188
X49936Y19863
X43510Y14605
X36068Y11430
X36220Y19219
X62687Y15799
X67335Y20574
X70358Y10668
X60401Y4902
X59385Y18720
X60477Y11938
X56896Y15088
X66497Y18186
X62941Y18898
X73584Y11328
X58649Y11938
X64110Y15113
X64491Y3658
X68656Y6426
X68682Y8814
X70866Y12014
X70866Y14072
X66675Y9994
X66218Y6528
X64262Y4572
X61544Y8357
X68326Y5334
X61468Y9906
X67666Y12040
X67615Y8433
X68796Y20523
X65265Y20765
X63246Y21641
X60731Y12827
X60528Y18745
X64643Y6731
X73363Y12225
X65016Y14732
X73381Y17069
X61443Y12217
X61468Y18593
X63779Y7112
X65583Y7188
X75844Y19863
X69418Y14605
X61976Y11430
X62128Y19219
X88595Y15799
X93243Y20574
X96266Y10668
X86309Y4902
X85293Y18720
X86385Y11938
X82804Y15088
X92405Y18186
X88849Y18898
X99492Y11328
X84557Y11938
X90018Y15113
X90399Y3658
X94564Y6426
X94590Y8814
X96774Y12014
X96774Y14072
X92583Y9994
X92126Y6528
X90170Y4572
X87452Y8357
X94234Y5334
X87376Y9906
X93574Y12040
X93523Y8433
X94704Y20523
X91173Y20765
X89154Y21641
X86639Y12827
X86436Y18745
X90551Y6731
X99271Y12225
X90924Y14732
X99289Y17069
X87351Y12217
X87376Y18593
X89687Y7112
X91491Y7188
X101752Y19863
X95326Y14605
X87884Y11430
X88036Y19219
X114503Y15799
X119151Y20574
X122174Y10668
X112217Y4902
X111201Y18720
X112293Y11938
X118313Y18186
X114757Y18898
X125400Y11328
X110465Y11938
X115926Y15113
X116307Y3658
X120472Y6426
X120498Y8814
X122682Y12014
X122682Y14072
X118491Y9994
X118034Y6528
X116078Y4572
X113360Y8357
X120142Y5334
X113284Y9906
X119482Y12040
X119431Y8433
X120612Y20523
X117081Y20765
X115062Y21641
X112547Y12827
X112344Y18745
X116459Y6731
X125179Y12225
X116832Y14732
X125197Y17069
X113259Y12217
X113284Y18593
X115595Y7112
X117399Y7188
X127660Y19863
X121234Y14605
X113792Y11430
X113944Y19219
X119431Y60249
X140411Y15799
X145059Y20574
X148082Y10668
X138125Y4902
X137109Y18720
X138201Y11938
X134620Y15088
X144221Y18186
X140665Y18898
X151308Y11328
X136373Y11938
X141834Y15113
X142215Y3658
X146380Y6426
X146406Y8814
X148590Y12014
X148590Y14072
X144399Y9994
X143942Y6528
X141986Y4572
X139268Y8357
X146050Y5334
X139192Y9906
X145390Y12040
X145339Y8433
X146520Y20523
X142989Y20765
X140970Y21641
X138455Y12827
X138252Y18745
X142367Y6731
X151087Y12225
X142740Y14732
X151105Y17069
X139167Y12217
X139192Y18593
X141503Y7112
X143307Y7188
X153568Y19863
X147142Y14605
X139700Y11430
X139852Y19219
X10871Y41707
X15519Y46482
X18542Y36576
X8585Y30810
X7569Y44628
X8661Y37846
X5080Y40996
X14681Y44094
X11125Y44806
X21768Y37236
X6833Y37846
X12294Y41021
X12675Y29566
X16840Y32334
X16866Y34722
X19050Y37922
X19050Y39980
X14859Y35902
X14402Y32436
X12446Y30480
X9728Y34265
X16510Y31242
X9652Y35814
X15850Y37948
X15799Y34341
X16980Y46431
X13449Y46672
X11430Y47549
X8915Y38735
X8712Y44653
X12827Y32639
X21547Y38133
X13200Y40640
X21565Y42977
X9627Y38125
X9652Y44501
X11963Y33020
X13767Y33096
X24028Y45771
X17602Y40513
X10160Y37338
X10312Y45127
X36779Y41707
X41427Y46482
X44450Y36576
X34493Y30810
X33477Y44628
X34569Y37846
X30988Y40996
X40589Y44094
X37033Y44806
X47676Y37236
X32741Y37846
X38202Y41021
X38583Y29566
X42748Y32334
X42774Y34722
X44958Y37922
X44958Y39980
X40767Y35902
X40310Y32436
X38354Y30480
X35636Y34265
X42418Y31242
X35560Y35814
X41758Y37948
X41707Y34341
X42888Y46431
X39357Y46672
X37338Y47549
X34823Y38735
X34620Y44653
X38735Y32639
X47455Y38133
X39108Y40640
X47473Y42977
X35535Y38125
X35560Y44501
X37871Y33020
X39675Y33096
X49936Y45771
X43510Y40513
X36068Y37338
X36220Y45127
X62687Y41707
X67335Y46482
X70358Y36576
X60401Y30810
X59385Y44628
X60477Y37846
X56896Y40996
X66497Y44094
X62941Y44806
X73584Y37236
X58649Y37846
X64110Y41021
X64491Y29566
X68656Y32334
X68682Y34722
X70866Y37922
X70866Y39980
X66675Y35902
X66218Y32436
X64262Y30480
X61544Y34265
X68326Y31242
X61468Y35814
X67666Y37948
X67615Y34341
X68796Y46431
X65265Y46672
X63246Y47549
X60731Y38735
X60528Y44653
X64643Y32639
X73363Y38133
X65016Y40640
X73381Y42977
X61443Y38125
X61468Y44501
X63779Y33020
X65583Y33096
X75844Y45771
X69418Y40513
X61976Y37338
X62128Y45127
X88595Y41707
X93243Y46482
X96266Y36576
X86309Y30810
X85293Y44628
X86385Y37846
M30